<?xml version="1.0" standalone="no"?>
<!DOCTYPE svg PUBLIC "-//W3C//DTD SVG 20010904//EN"
 "http://www.w3.org/TR/2001/REC-SVG-20010904/DTD/svg10.dtd">
<svg version="1.0" xmlns="http://www.w3.org/2000/svg"
 width="1200.000000pt" height="1200.000000pt" viewBox="0 0 1200.000000 1200.000000"
 preserveAspectRatio="xMidYMid meet">
<metadata>
Created by potrace 1.14, written by Peter Selinger 2001-2017
</metadata>
<g transform="translate(0.000000,1200.000000) scale(0.100000,-0.100000)"
fill="#000000" stroke="none">
<path d="M1635 10789 c-93 -13 -182 -37 -279 -76 -391 -155 -671 -506 -742
-927 -13 -78 -13 -342 -1 -376 4 -8 8 -29 10 -46 13 -92 73 -247 147 -379 62
-112 205 -267 327 -357 124 -91 322 -177 479 -208 77 -15 301 -21 384 -9 370
52 693 269 882 595 43 74 102 219 118 289 7 28 14 59 16 70 25 111 25 353 0
475 -99 468 -465 836 -932 935 -89 19 -317 27 -409 14z"/>
<path d="M4200 9600 l0 -600 3600 0 3600 0 0 600 0 600 -3600 0 -3600 0 0
-600z"/>
<path d="M1679 7196 c-2 -2 -28 -7 -58 -10 -74 -9 -91 -13 -196 -48 -93 -31
-244 -101 -273 -128 -9 -8 -37 -28 -62 -44 -66 -42 -228 -210 -282 -292 -145
-219 -211 -446 -204 -704 7 -226 49 -377 166 -585 62 -111 201 -263 326 -356
115 -85 347 -188 458 -204 17 -2 53 -8 79 -13 54 -11 296 -8 367 3 141 23 338
102 473 192 68 45 255 222 287 272 8 13 28 42 44 64 72 101 164 339 182 469
11 78 13 282 3 346 -15 103 -18 116 -49 213 -133 406 -477 715 -896 804 -68
15 -354 31 -365 21z"/>
<path d="M4200 6000 l0 -600 3600 0 3600 0 0 600 0 600 -3600 0 -3600 0 0
-600z"/>
<path d="M1645 3590 c-104 -16 -123 -20 -214 -50 -187 -61 -329 -148 -472
-290 -53 -52 -118 -126 -144 -164 -84 -125 -159 -293 -184 -416 -6 -30 -14
-66 -17 -80 -3 -14 -7 -90 -9 -170 -2 -120 1 -164 20 -255 51 -247 151 -431
330 -611 141 -142 284 -230 471 -293 126 -41 201 -53 349 -56 219 -4 391 35
580 133 155 80 314 218 423 365 66 90 168 309 187 402 2 11 9 45 15 75 16 73
21 299 10 378 -16 104 -19 117 -50 213 -62 188 -150 330 -295 474 -173 174
-369 281 -601 330 -86 18 -318 27 -399 15z"/>
<path d="M4200 2400 l0 -600 3600 0 3600 0 0 600 0 600 -3600 0 -3600 0 0
-600z"/>
</g>
</svg>
